# xmcd
#
# Track frame offsets:
#	150
#	4050
#	24607
#	46027
#	66817
#	86777
#	92267
#	106765
#	129022
#	147382
#	168107
#	184727
#	205607
#	232920
#	264987
#
# Disc length: 4393 seconds
#
# Revision: 9
# Processed by: cddbd v1.5.2PL0 Copyright (c) Steve Scherf et al.
# Submitted via: audiograbber 1.83.01
#
DISCID=ad11270f
DTITLE=P. Diddy - We Invented The Remix
DYEAR=2002
DGENRE=Hip-Hop
TTITLE0=P. Diddy - Intro
TTITLE1=P. Diddy, G. Dep, Ghostface Killah, Keith Murray, Craig Mack - Special 
TTITLE1=Delivery (Remix)
TTITLE2=P. Diddy, Ginuwine, Loon, Mario Winans, Tammy Ruggieri - I Need A Girl 
TTITLE2=(Part II)
TTITLE3=P. Diddy, Busta Rhymes, M.O.P. - Bad Boy For Life (Remix)
TTITLE4=P. Diddy, Usher, Loon - I Need A Girl (Part I)
TTITLE5=P. Diddy - The Remix Pheonomenon (Interlude)
TTITLE6=P. Diddy, Notorious B.I.G., Ashanti - Unfoolish (Remix)
TTITLE7=P. Diddy, 112, Ludacris, Beanie Sigel - Dance With Me-Peaches And Cream
TTITLE7=(Remix)
TTITLE8=P. Diddy, Mary J. Blige - No More Drama (Remix)
TTITLE9=P. Diddy, Cheri Dennis - So Complete (Remix)
TTITLE10=P. Diddy, Notorious B.I.G., Lil' Kim - Notorious B.I.G. (Remix)
TTITLE11=P. Diddy, Black Rob, Missy Elliott, Snoop Dogg, G. Dep - That's Crazy
TTITLE12=P. Diddy, Carl Thomas, Notorious B.I.G. - Woke Up In The Morning (Remi
TTITLE12=x)
TTITLE13=P. Diddy, G. Dep, Faith Evans - You Gets No Love (Remix)
TTITLE14=P. Diddy - Data
EXTD=www.RapMusicGuide.com
EXTT0=
EXTT1=
EXTT2=
EXTT3=
EXTT4=
EXTT5=
EXTT6=
EXTT7=
EXTT8=
EXTT9=
EXTT10=
EXTT11=
EXTT12=
EXTT13=
EXTT14=
PLAYORDER=
